<svg width="32" height="32" viewBox="0 0 32 32" fill="none" xmlns="http://www.w3.org/2000/svg">
<path fill-rule="evenodd" clip-rule="evenodd" d="M21.0945 6.95637L16 2L0 17.5661V29L12.6629 29L12.6629 28.3254H0.666363V17.8346L16 2.91682V28.9923L15.9927 28.9997L16 28.9997L21.0945 29V6.95637ZM16 28.9997V28.9923L20.4074 24.4921V28.9997L16 28.9997Z" fill="#4C4644"/>
<path d="M21.3444 7.19948L21.3444 29L23.6767 29L23.6767 9.46849L21.3444 7.19948Z" fill="#4C4644"/>
<path d="M24.0099 29L24.0099 9.79263L25.8215 11.5552L25.8216 29H24.0099Z" fill="#4C4644"/>
<path d="M26.238 11.9604L26.238 29H27.6957L27.6957 13.3785L26.238 11.9604Z" fill="#4C4644"/>
<path d="M28.1955 29L28.1955 13.8647L29.2158 14.8574V29H28.1955Z" fill="#4C4644"/>
<path d="M29.7989 15.4247V29H30.6735V16.2755L29.7989 15.4247Z" fill="#4C4644"/>
<path d="M31.3399 29V16.9238L32 17.5661V29H31.3399Z" fill="#4C4644"/>
</svg>
