<svg width="152" height="54" viewBox="0 0 152 54" fill="none" xmlns="http://www.w3.org/2000/svg">
<path d="M11.181 52.8617V47.3571C11.181 46.7253 11.0838 46.1785 10.8894 45.7167C10.7071 45.255 10.4337 44.9026 10.0691 44.6595C9.7046 44.4165 9.26108 44.295 8.73858 44.295C8.17962 44.295 7.66926 44.4651 7.20751 44.8054C6.74576 45.1456 6.39338 45.6195 6.15035 46.2271C6.01669 45.6316 5.75543 45.1638 5.36659 44.8236C4.97775 44.4712 4.47955 44.295 3.87198 44.295C3.32518 44.295 2.83912 44.459 2.41383 44.7871C1.98853 45.1152 1.66652 45.577 1.4478 46.1724V44.4773H0.5V52.8617H1.4478V47.7581C1.4478 47.2599 1.54501 46.8164 1.73943 46.4276C1.93385 46.0387 2.19511 45.7349 2.52319 45.5162C2.86343 45.2975 3.24012 45.1881 3.65326 45.1881C4.23652 45.1881 4.66789 45.3886 4.94737 45.7896C5.22685 46.1785 5.36659 46.7374 5.36659 47.4665V52.8617H6.31439V47.7581C6.31439 47.2599 6.4116 46.8164 6.60602 46.4276C6.80045 46.0387 7.0617 45.7349 7.38978 45.5162C7.73002 45.2975 8.10671 45.1881 8.51985 45.1881C9.10312 45.1881 9.53449 45.3886 9.81397 45.7896C10.0934 46.1785 10.2332 46.7374 10.2332 47.4665V52.8617H11.181Z" fill="#4C4644"/>
<path d="M14.6284 40.2122C14.4948 40.3337 14.4279 40.4916 14.4279 40.6861C14.4279 40.8683 14.4948 41.0263 14.6284 41.16C14.7621 41.2936 14.9201 41.3605 15.1023 41.3605C15.2968 41.3605 15.4547 41.2936 15.5762 41.16C15.7099 41.0263 15.7767 40.8683 15.7767 40.6861C15.7767 40.4916 15.7099 40.3337 15.5762 40.2122C15.4547 40.0785 15.2968 40.0117 15.1023 40.0117C14.9201 40.0117 14.7621 40.0785 14.6284 40.2122Z" fill="#4C4644"/>
<path d="M15.5762 52.8617V44.4773H14.6284V52.8617H15.5762Z" fill="#4C4644"/>
<path fill-rule="evenodd" clip-rule="evenodd" d="M20.1771 52.4789C20.7604 52.8556 21.4287 53.0439 22.1821 53.0439C23.0205 53.0439 23.7496 52.8738 24.3693 52.5336C25.0012 52.1812 25.5541 51.6405 26.028 50.9114L25.2624 50.4193C24.8857 51.0147 24.4544 51.4521 23.9683 51.7316C23.4944 52.0111 22.9355 52.1508 22.2914 52.1508C21.6839 52.1508 21.1492 52.005 20.6875 51.7134C20.2379 51.4217 19.8855 51.0086 19.6303 50.4739C19.423 50.0178 19.3041 49.4953 19.2736 48.9064H26.1373C26.1495 48.8457 26.1556 48.7728 26.1556 48.6877C26.1677 48.6026 26.1738 48.5237 26.1738 48.4507C26.1738 47.6366 26.0097 46.9197 25.6817 46.3C25.3657 45.6681 24.9161 45.176 24.3329 44.8236C23.7617 44.4712 23.0934 44.295 22.3279 44.295C21.5381 44.295 20.8394 44.4833 20.2318 44.86C19.6242 45.2246 19.1503 45.7349 18.8101 46.3911C18.4699 47.0473 18.2997 47.8007 18.2997 48.6512C18.2997 49.5018 18.4638 50.2613 18.7919 50.9296C19.1321 51.5858 19.5939 52.1022 20.1771 52.4789ZM19.2897 48.0862C19.3375 47.5941 19.4572 47.1566 19.6485 46.7739C19.9037 46.2514 20.2561 45.8504 20.7057 45.5709C21.1674 45.2793 21.7082 45.1334 22.3279 45.1334C22.8626 45.1334 23.3425 45.261 23.7678 45.5162C24.1931 45.7714 24.5273 46.1238 24.7703 46.5734C25.0228 47.0182 25.1503 47.5225 25.153 48.0862H19.2897Z" fill="#4C4644"/>
<path d="M29.9425 51.9321C29.6266 51.7741 29.3653 51.5676 29.1587 51.3124C28.9522 51.0572 28.7881 50.7777 28.6666 50.4739L27.9011 50.9114C28.0226 51.2638 28.2109 51.604 28.4661 51.9321C28.7334 52.2602 29.0797 52.5275 29.505 52.7341C29.9425 52.9406 30.4528 53.0439 31.0361 53.0439C31.8381 53.0439 32.4882 52.8191 32.9864 52.3695C33.4967 51.9078 33.7519 51.3124 33.7519 50.5833C33.7519 50.1094 33.6304 49.7206 33.3874 49.4168C33.1565 49.113 32.8466 48.8578 32.4578 48.6512C32.0811 48.4447 31.668 48.2563 31.2184 48.0862C30.8781 47.9647 30.5561 47.8371 30.2523 47.7034C29.9486 47.5698 29.7055 47.3997 29.5233 47.1931C29.341 46.9744 29.2499 46.701 29.2499 46.3729C29.2499 45.9719 29.3896 45.6681 29.6691 45.4615C29.9607 45.255 30.3131 45.1517 30.7262 45.1517C31.2852 45.1517 31.7409 45.2853 32.0933 45.5527C32.4457 45.82 32.7191 46.1359 32.9135 46.5005L33.6972 46.0266C33.5514 45.7106 33.3448 45.4251 33.0775 45.1699C32.8102 44.9147 32.4882 44.7081 32.1115 44.5502C31.7348 44.3922 31.3095 44.3132 30.8356 44.3132C30.3982 44.3132 29.985 44.3922 29.5962 44.5502C29.2195 44.696 28.9096 44.9269 28.6666 45.2428C28.4357 45.5587 28.3203 45.9537 28.3203 46.4276C28.3203 46.9258 28.4357 47.3328 28.6666 47.6488C28.9096 47.9525 29.2134 48.1956 29.5779 48.3778C29.9425 48.5601 30.3192 48.7241 30.708 48.87C31.0726 48.9915 31.4128 49.1312 31.7287 49.2892C32.0447 49.435 32.2998 49.6233 32.4943 49.8542C32.6887 50.0729 32.7859 50.3524 32.7859 50.6927C32.7859 51.1544 32.6279 51.5189 32.312 51.7863C32.0082 52.0415 31.6011 52.169 31.0908 52.169C30.6533 52.169 30.2706 52.0901 29.9425 51.9321Z" fill="#4C4644"/>
<path d="M35.7445 45.3704H41.0121L35.2706 52.8617H42.5978V51.9685H37.0021L42.7436 44.4773H35.7445V45.3704Z" fill="#4C4644"/>
<path d="M45.792 38.6447H44.8442V52.8617H45.792V48.3366L49.7472 52.8617H50.9502L46.6486 47.9404L50.6039 44.4773H49.3827L45.792 47.6358V38.6447Z" fill="#4C4644"/>
<path fill-rule="evenodd" clip-rule="evenodd" d="M57.7139 51.3416C57.6451 51.5017 57.5601 51.6499 57.4588 51.7863C57.1428 52.2116 56.7479 52.5275 56.274 52.7341C55.8001 52.9406 55.3201 53.0439 54.8341 53.0439C54.3602 53.0439 53.9045 52.9467 53.4671 52.7523C53.0296 52.5457 52.6772 52.248 52.4099 51.8592C52.1426 51.4703 52.0089 50.9782 52.0089 50.3828C52.0089 49.5687 52.2884 48.9246 52.8473 48.4507C53.4184 47.9768 54.1901 47.7399 55.1622 47.7399C55.709 47.7399 56.1768 47.8067 56.5656 47.9404C56.9666 48.0619 57.2947 48.2016 57.5499 48.3596C57.6084 48.3958 57.6631 48.4308 57.7139 48.4644V47.0473C57.7139 46.8042 57.6775 46.5734 57.6046 46.3546C57.5317 46.1238 57.4101 45.9172 57.24 45.7349C57.0821 45.5527 56.8633 45.4068 56.5839 45.2975C56.3044 45.1881 55.9641 45.1334 55.5632 45.1334C55.15 45.1334 54.7794 45.182 54.4513 45.2793C54.1232 45.3765 53.8377 45.4919 53.5946 45.6256C53.3638 45.7592 53.1693 45.8868 53.0114 46.0083L52.5375 45.2975C52.8534 45.0788 53.2605 44.86 53.7587 44.6413C54.269 44.4104 54.8948 44.295 55.6361 44.295C56.2679 44.295 56.8087 44.3983 57.2583 44.6049C57.7079 44.8114 58.0542 45.1091 58.2972 45.498C58.5402 45.8868 58.6617 46.3607 58.6617 46.9197V52.8617H57.7139V51.3416ZM53.2483 51.3853C53.0661 51.1058 52.9749 50.7595 52.9749 50.3463C52.9749 49.9211 53.0721 49.5747 53.2666 49.3074C53.461 49.0401 53.7283 48.8396 54.0685 48.7059C54.4209 48.5723 54.8341 48.5054 55.308 48.5054C55.8183 48.5054 56.3044 48.5783 56.7661 48.7241C57.0969 48.8174 57.4128 48.9492 57.7139 49.1194V49.3621C57.7139 49.9818 57.5924 50.5043 57.3494 50.9296C57.1064 51.3549 56.7844 51.6769 56.3834 51.8956C55.9945 52.1144 55.5632 52.2237 55.0893 52.2237C54.7004 52.2237 54.3419 52.1569 54.0139 52.0232C53.6979 51.8774 53.4428 51.6648 53.2483 51.3853Z" fill="#4C4644"/>
<path d="M66.5338 45.7896C66.8497 46.1906 67.0077 46.7496 67.0077 47.4665V52.8617H67.9555V47.3571C67.9555 46.4215 67.7246 45.6803 67.2629 45.1334C66.8011 44.5745 66.1328 44.295 65.2579 44.295C64.6382 44.295 64.0914 44.4651 63.6175 44.8054C63.1557 45.1456 62.8094 45.6195 62.5785 46.2271V44.4773H61.6307V52.8617H62.5785V47.7581C62.5785 47.2721 62.6818 46.8346 62.8884 46.4458C63.1071 46.0569 63.3987 45.7532 63.7633 45.5344C64.14 45.3036 64.5653 45.1881 65.0392 45.1881C65.7196 45.1881 66.2178 45.3886 66.5338 45.7896Z" fill="#4C4644"/>
<path d="M71.3982 40.2122C71.2646 40.3337 71.1977 40.4916 71.1977 40.6861C71.1977 40.8683 71.2646 41.0263 71.3982 41.16C71.5319 41.2936 71.6899 41.3605 71.8721 41.3605C72.0666 41.3605 72.2245 41.2936 72.346 41.16C72.4797 41.0263 72.5465 40.8683 72.5465 40.6861C72.5465 40.4916 72.4797 40.3337 72.346 40.2122C72.2245 40.0785 72.0666 40.0117 71.8721 40.0117C71.6899 40.0117 71.5319 40.0785 71.3982 40.2122Z" fill="#4C4644"/>
<path d="M72.346 44.4773H71.3982V52.8617H72.346V44.4773Z" fill="#4C4644"/>
<path fill-rule="evenodd" clip-rule="evenodd" d="M76.9469 52.4789C77.5302 52.8556 78.1985 53.0439 78.9519 53.0439C79.7903 53.0439 80.5194 52.8738 81.1391 52.5336C81.771 52.1812 82.3239 51.6405 82.7978 50.9114L82.0322 50.4193C81.6555 51.0147 81.2242 51.4521 80.7381 51.7316C80.2642 52.0111 79.7053 52.1508 79.0612 52.1508C78.4537 52.1508 77.919 52.005 77.4573 51.7134C77.0077 51.4217 76.6553 51.0086 76.4001 50.4739C76.1928 50.0178 76.0739 49.4953 76.0434 48.9064H82.9071C82.9193 48.8457 82.9253 48.7728 82.9253 48.6877C82.9375 48.6026 82.9436 48.5237 82.9436 48.4507C82.9436 47.6366 82.7795 46.9197 82.4514 46.3C82.1355 45.6681 81.6859 45.176 81.1027 44.8236C80.5315 44.4712 79.8632 44.295 79.0977 44.295C78.3079 44.295 77.6092 44.4833 77.0016 44.86C76.394 45.2246 75.9201 45.7349 75.5799 46.3911C75.2397 47.0473 75.0695 47.8007 75.0695 48.6512C75.0695 49.5018 75.2336 50.2613 75.5617 50.9296C75.9019 51.5858 76.3636 52.1022 76.9469 52.4789ZM76.0595 48.0862C76.1073 47.5941 76.2269 47.1566 76.4183 46.7739C76.6735 46.2514 77.0259 45.8504 77.4755 45.5709C77.9372 45.2793 78.478 45.1334 79.0977 45.1334C79.6323 45.1334 80.1123 45.261 80.5376 45.5162C80.9629 45.7714 81.2971 46.1238 81.5401 46.5734C81.7926 47.0182 81.9201 47.5225 81.9228 48.0862H76.0595Z" fill="#4C4644"/>
<path d="M118.779 44.4038H119.805V53.2758L113.407 46.5644V52.8533H112.381V43.9813L118.779 50.6926V44.4038Z" fill="#4C4644"/>
<path fill-rule="evenodd" clip-rule="evenodd" d="M122.224 48.6285C122.224 48.0089 122.328 47.4376 122.537 46.9145C122.755 46.3834 123.056 45.9247 123.443 45.5384C123.829 45.1441 124.284 44.8383 124.807 44.621C125.33 44.3957 125.897 44.283 126.509 44.283C127.128 44.283 127.696 44.3957 128.211 44.621C128.734 44.8383 129.188 45.1441 129.575 45.5384C129.961 45.9247 130.259 46.3834 130.468 46.9145C130.685 47.4376 130.794 48.0089 130.794 48.6285C130.794 49.2401 130.685 49.8115 130.468 50.3426C130.259 50.8737 129.961 51.3364 129.575 51.7307C129.188 52.117 128.734 52.4228 128.211 52.6481C127.696 52.8654 127.128 52.974 126.509 52.974C125.897 52.974 125.33 52.8654 124.807 52.6481C124.284 52.4228 123.829 52.117 123.443 51.7307C123.056 51.3364 122.755 50.8737 122.537 50.3426C122.328 49.8115 122.224 49.2401 122.224 48.6285ZM123.31 48.6285C123.31 49.2643 123.447 49.8316 123.72 50.3305C124.002 50.8295 124.384 51.2238 124.867 51.5135C125.35 51.8032 125.897 51.948 126.509 51.948C127.128 51.948 127.676 51.8032 128.15 51.5135C128.633 51.2238 129.011 50.8295 129.285 50.3305C129.567 49.8316 129.707 49.2643 129.707 48.6285C129.707 47.9928 129.567 47.4255 129.285 46.9266C129.011 46.4276 128.633 46.0333 128.15 45.7436C127.676 45.4539 127.128 45.3091 126.509 45.3091C125.897 45.3091 125.35 45.4539 124.867 45.7436C124.384 46.0333 124.002 46.4276 123.72 46.9266C123.447 47.4255 123.31 47.9928 123.31 48.6285Z" fill="#4C4644"/>
<path d="M140.363 50.6202L142.56 44.4038H143.707L140.387 53.2758L137.852 46.7093L135.318 53.2758L131.998 44.4038H133.145L135.39 50.6202L137.852 43.9813L140.363 50.6202Z" fill="#4C4644"/>
<path fill-rule="evenodd" clip-rule="evenodd" d="M144.801 52.8533L145.872 50.3185H149.276L150.353 52.8533H151.5L147.577 43.9813L143.654 52.8533H144.801ZM148.871 49.3528H146.286L147.577 46.3109L148.871 49.3528Z" fill="#4C4644"/>
<path fill-rule="evenodd" clip-rule="evenodd" d="M89.0877 48.6369C89.0877 48.0172 89.1923 47.4459 89.4016 46.9228C89.6189 46.3917 89.9206 45.933 90.3069 45.5467C90.6932 45.1524 91.1478 44.8466 91.6709 44.6294C92.194 44.404 92.7613 44.2914 93.3729 44.2914C93.9925 44.2914 94.5598 44.404 95.0749 44.6294C95.5979 44.8466 96.0526 45.1524 96.4389 45.5467C96.8251 45.933 97.1229 46.3917 97.3321 46.9228C97.5494 47.4459 97.658 48.0172 97.658 48.6369C97.658 49.2485 97.5494 49.8198 97.3321 50.3509C97.1229 50.8821 96.8251 51.3448 96.4389 51.7391C96.0526 52.1253 95.5979 52.4311 95.0749 52.6565C94.5598 52.8737 93.9925 52.9824 93.3729 52.9824C92.7613 52.9824 92.194 52.8737 91.6709 52.6565C91.1478 52.4311 90.6932 52.1253 90.3069 51.7391C89.9206 51.3448 89.6189 50.8821 89.4016 50.3509C89.1923 49.8198 89.0877 49.2485 89.0877 48.6369ZM90.1741 48.6369C90.1741 49.2726 90.3109 49.8399 90.5845 50.3389C90.8662 50.8378 91.2484 51.2321 91.7312 51.5218C92.2141 51.8115 92.7613 51.9564 93.3729 51.9564C93.9925 51.9564 94.5397 51.8115 95.0145 51.5218C95.4973 51.2321 95.8756 50.8378 96.1492 50.3389C96.4308 49.8399 96.5716 49.2726 96.5716 48.6369C96.5716 48.0011 96.4308 47.4338 96.1492 46.9349C95.8756 46.436 95.4973 46.0417 95.0145 45.752C94.5397 45.4623 93.9925 45.3174 93.3729 45.3174C92.7613 45.3174 92.2141 45.4623 91.7312 45.752C91.2484 46.0417 90.8662 46.436 90.5845 46.9349C90.3109 47.4338 90.1741 48.0011 90.1741 48.6369Z" fill="#4C4644"/>
<path fill-rule="evenodd" clip-rule="evenodd" d="M100.073 44.4121H102.608C103.428 44.4121 104.157 44.5891 104.792 44.9432C105.428 45.2973 105.927 45.7922 106.289 46.4279C106.651 47.0556 106.832 47.7919 106.832 48.6369C106.832 49.4818 106.651 50.2222 106.289 50.8579C105.927 51.4856 105.428 51.9765 104.792 52.3305C104.157 52.6846 103.428 52.8617 102.608 52.8617H100.073V44.4121ZM101.099 51.8356V45.4381H102.608C103.082 45.4381 103.517 45.5146 103.911 45.6675C104.305 45.8123 104.643 46.0256 104.925 46.3072C105.207 46.5808 105.424 46.9148 105.577 47.3091C105.73 47.7034 105.806 48.146 105.806 48.6369C105.806 49.1278 105.73 49.5704 105.577 49.9647C105.424 50.359 105.207 50.697 104.925 50.9786C104.643 51.2522 104.305 51.4655 103.911 51.6184C103.517 51.7632 103.082 51.8356 102.608 51.8356H101.099Z" fill="#4C4644"/>
<path fill-rule="evenodd" clip-rule="evenodd" d="M119.774 8.10698L112.392 0.724182L89.2051 23.9107V40.9423L107.556 40.9423L107.556 39.9374H90.1707V24.3107L112.392 2.08984V40.9308L112.381 40.9419L112.392 40.9419L119.774 40.9423L119.774 8.10698ZM112.392 40.9419V40.9308L118.779 34.2275V40.9419L112.392 40.9419Z" fill="#4C4644"/>
<path d="M120.137 8.46911L120.137 40.9423L123.516 40.9423L123.516 11.8489L120.137 8.46911Z" fill="#4C4644"/>
<path d="M123.999 40.9423V12.3318L126.625 14.9572L126.625 40.9423H123.999Z" fill="#4C4644"/>
<path d="M127.228 15.5607L127.228 40.9423H129.341L129.341 17.6731L127.228 15.5607Z" fill="#4C4644"/>
<path d="M130.065 40.9423L130.065 18.3974L131.543 19.876V40.9423H130.065Z" fill="#4C4644"/>
<path d="M132.388 20.721V40.9423H133.656V21.9884L132.388 20.721Z" fill="#4C4644"/>
<path d="M134.622 40.9423V22.9541L135.578 23.9107V40.9423H134.622Z" fill="#4C4644"/>
</svg>
