<svg width="617" height="215" viewBox="0 0 617 215" fill="none" xmlns="http://www.w3.org/2000/svg">
<path d="M43.6435 213.039V190.547C43.6435 187.965 43.2463 185.731 42.4519 183.844C41.7071 181.958 40.5899 180.518 39.1004 179.525C37.6109 178.532 35.7986 178.035 33.6636 178.035C31.3796 178.035 29.2943 178.73 27.4075 180.12C25.5208 181.511 24.0809 183.447 23.0879 185.93C22.5417 183.497 21.4742 181.585 19.8853 180.195C18.2965 178.755 16.2608 178.035 13.7782 178.035C11.5439 178.035 9.55788 178.705 7.82008 180.046C6.08228 181.387 4.76653 183.273 3.8728 185.706V178.78H0V213.039H3.8728V192.186C3.8728 190.15 4.27001 188.338 5.06443 186.749C5.85885 185.16 6.92636 183.919 8.26694 183.025C9.65718 182.131 11.1964 181.684 12.8845 181.684C15.2678 181.684 17.0304 182.504 18.1724 184.142C19.3144 185.731 19.8853 188.015 19.8853 190.994V213.039H23.7582V192.186C23.7582 190.15 24.1554 188.338 24.9498 186.749C25.7442 185.16 26.8117 183.919 28.1523 183.025C29.5425 182.131 31.0817 181.684 32.7699 181.684C35.1531 181.684 36.9157 182.504 38.0577 184.142C39.1997 185.731 39.7707 188.015 39.7707 190.994V213.039H43.6435Z" fill="#4C4644"/>
<path d="M57.7301 161.352C57.1839 161.849 56.9109 162.494 56.9109 163.289C56.9109 164.033 57.1839 164.679 57.7301 165.225C58.2763 165.771 58.9217 166.044 59.6665 166.044C60.4609 166.044 61.1064 165.771 61.6029 165.225C62.1491 164.679 62.4222 164.033 62.4222 163.289C62.4222 162.494 62.1491 161.849 61.6029 161.352C61.1064 160.806 60.4609 160.533 59.6665 160.533C58.9217 160.533 58.2763 160.806 57.7301 161.352Z" fill="#4C4644"/>
<path d="M61.6029 213.039V178.78H57.7301V213.039H61.6029Z" fill="#4C4644"/>
<path fill-rule="evenodd" clip-rule="evenodd" d="M80.4025 211.475C82.7858 213.014 85.5166 213.784 88.595 213.784C92.0209 213.784 95 213.089 97.5322 211.699C100.114 210.259 102.373 208.049 104.31 205.07L101.182 203.059C99.6424 205.492 97.8798 207.28 95.8937 208.422C93.9573 209.564 91.6734 210.135 89.0419 210.135C86.5593 210.135 84.3746 209.539 82.4879 208.347C80.6508 207.156 79.2109 205.467 78.1682 203.283C77.321 201.419 76.8352 199.284 76.7108 196.878H104.756C104.806 196.63 104.831 196.332 104.831 195.984C104.881 195.637 104.905 195.314 104.905 195.016C104.905 191.689 104.235 188.76 102.895 186.228C101.604 183.646 99.7665 181.635 97.3833 180.195C95.0497 178.755 92.3188 178.035 89.1908 178.035C85.9635 178.035 83.1085 178.805 80.626 180.344C78.1434 181.833 76.207 183.919 74.8168 186.6C73.4265 189.281 72.7314 192.36 72.7314 195.835C72.7314 199.311 73.4017 202.414 74.7423 205.145C76.1325 207.826 78.0193 209.936 80.4025 211.475ZM76.7764 193.526C76.9719 191.515 77.4607 189.728 78.2427 188.164C79.2854 186.029 80.7253 184.39 82.5624 183.249C84.4491 182.057 86.6586 181.461 89.1908 181.461C91.3755 181.461 93.3367 181.982 95.0745 183.025C96.8123 184.068 98.1777 185.508 99.1707 187.345C100.202 189.162 100.724 191.223 100.735 193.526H76.7764Z" fill="#4C4644"/>
<path d="M120.305 209.241C119.014 208.596 117.946 207.751 117.102 206.709C116.258 205.666 115.588 204.524 115.091 203.283L111.963 205.07C112.46 206.51 113.229 207.9 114.272 209.241C115.364 210.582 116.779 211.674 118.517 212.518C120.305 213.362 122.39 213.784 124.773 213.784C128.05 213.784 130.707 212.866 132.742 211.028C134.828 209.142 135.87 206.709 135.87 203.73C135.87 201.793 135.374 200.204 134.381 198.963C133.438 197.722 132.171 196.679 130.583 195.835C129.043 194.991 127.355 194.221 125.518 193.526C124.128 193.03 122.812 192.508 121.571 191.962C120.33 191.416 119.337 190.721 118.592 189.877C117.847 188.983 117.475 187.866 117.475 186.525C117.475 184.887 118.046 183.646 119.188 182.802C120.379 181.958 121.819 181.536 123.507 181.536C125.791 181.536 127.653 182.082 129.093 183.174C130.533 184.266 131.65 185.557 132.444 187.047L135.647 185.11C135.051 183.819 134.207 182.653 133.115 181.61C132.022 180.567 130.707 179.723 129.167 179.078C127.628 178.432 125.891 178.11 123.954 178.11C122.167 178.11 120.479 178.432 118.89 179.078C117.35 179.674 116.084 180.617 115.091 181.908C114.148 183.199 113.676 184.813 113.676 186.749C113.676 188.785 114.148 190.448 115.091 191.739C116.084 192.98 117.326 193.973 118.815 194.718C120.305 195.463 121.844 196.133 123.433 196.729C124.922 197.225 126.313 197.796 127.603 198.442C128.894 199.038 129.937 199.807 130.732 200.751C131.526 201.644 131.923 202.786 131.923 204.177C131.923 206.063 131.278 207.553 129.987 208.645C128.745 209.688 127.082 210.209 124.997 210.209C123.209 210.209 121.645 209.886 120.305 209.241Z" fill="#4C4644"/>
<path d="M144.012 182.429H165.536L142.076 213.039H172.016V209.39H149.151L172.611 178.78H144.012V182.429Z" fill="#4C4644"/>
<path d="M185.067 154.947H181.194V213.039H185.067V194.549L201.229 213.039H206.144L188.568 192.931L204.729 178.78H199.739L185.067 191.686V154.947Z" fill="#4C4644"/>
<path fill-rule="evenodd" clip-rule="evenodd" d="M233.781 206.828C233.5 207.482 233.153 208.088 232.739 208.645C231.448 210.383 229.834 211.674 227.898 212.518C225.961 213.362 224 213.784 222.014 213.784C220.078 213.784 218.216 213.387 216.428 212.592C214.641 211.748 213.201 210.532 212.109 208.943C211.016 207.354 210.47 205.343 210.47 202.91C210.47 199.584 211.612 196.952 213.896 195.016C216.23 193.079 219.383 192.111 223.355 192.111C225.589 192.111 227.501 192.384 229.089 192.931C230.728 193.427 232.068 193.998 233.111 194.643C233.35 194.791 233.574 194.934 233.781 195.072V189.281C233.781 188.288 233.632 187.345 233.335 186.451C233.037 185.508 232.54 184.664 231.845 183.919C231.2 183.174 230.306 182.578 229.164 182.131C228.022 181.684 226.632 181.461 224.993 181.461C223.305 181.461 221.791 181.66 220.45 182.057C219.109 182.454 217.943 182.926 216.95 183.472C216.006 184.018 215.212 184.539 214.566 185.036L212.63 182.131C213.921 181.238 215.584 180.344 217.62 179.45C219.705 178.507 222.262 178.035 225.291 178.035C227.873 178.035 230.082 178.457 231.92 179.301C233.757 180.145 235.172 181.362 236.165 182.951C237.158 184.539 237.654 186.476 237.654 188.76V213.039H233.781V206.828ZM215.535 207.007C214.79 205.865 214.417 204.45 214.417 202.761C214.417 201.024 214.815 199.609 215.609 198.516C216.403 197.424 217.496 196.605 218.886 196.059C220.326 195.512 222.014 195.239 223.95 195.239C226.036 195.239 228.022 195.537 229.909 196.133C231.26 196.514 232.551 197.053 233.781 197.748V198.74C233.781 201.272 233.285 203.407 232.292 205.145C231.299 206.883 229.983 208.198 228.345 209.092C226.756 209.986 224.993 210.433 223.057 210.433C221.468 210.433 220.003 210.16 218.663 209.613C217.372 209.018 216.329 208.149 215.535 207.007Z" fill="#4C4644"/>
<path d="M269.82 184.142C271.111 185.781 271.757 188.065 271.757 190.994V213.039H275.629V190.547C275.629 186.724 274.686 183.695 272.799 181.461C270.912 179.177 268.182 178.035 264.607 178.035C262.075 178.035 259.84 178.73 257.904 180.12C256.017 181.511 254.602 183.447 253.659 185.93V178.78H249.786V213.039H253.659V192.186C253.659 190.2 254.081 188.412 254.925 186.823C255.818 185.235 257.01 183.993 258.5 183.1C260.039 182.156 261.777 181.684 263.713 181.684C266.493 181.684 268.529 182.504 269.82 184.142Z" fill="#4C4644"/>
<path d="M289.697 161.352C289.151 161.849 288.878 162.494 288.878 163.289C288.878 164.033 289.151 164.679 289.697 165.225C290.243 165.771 290.888 166.044 291.633 166.044C292.428 166.044 293.073 165.771 293.57 165.225C294.116 164.679 294.389 164.033 294.389 163.289C294.389 162.494 294.116 161.849 293.57 161.352C293.073 160.806 292.428 160.533 291.633 160.533C290.888 160.533 290.243 160.806 289.697 161.352Z" fill="#4C4644"/>
<path d="M293.57 178.78H289.697V213.039H293.57V178.78Z" fill="#4C4644"/>
<path fill-rule="evenodd" clip-rule="evenodd" d="M312.369 211.475C314.752 213.014 317.483 213.784 320.562 213.784C323.988 213.784 326.967 213.089 329.499 211.699C332.081 210.259 334.34 208.049 336.276 205.07L333.148 203.059C331.609 205.492 329.846 207.28 327.86 208.422C325.924 209.564 323.64 210.135 321.008 210.135C318.526 210.135 316.341 209.539 314.455 208.347C312.617 207.156 311.178 205.467 310.135 203.283C309.288 201.419 308.802 199.284 308.677 196.878H336.723C336.773 196.63 336.798 196.332 336.798 195.984C336.847 195.637 336.872 195.314 336.872 195.016C336.872 191.689 336.202 188.76 334.861 186.228C333.57 183.646 331.733 181.635 329.35 180.195C327.016 178.755 324.285 178.035 321.157 178.035C317.93 178.035 315.075 178.805 312.593 180.344C310.11 181.833 308.174 183.919 306.783 186.6C305.393 189.281 304.698 192.36 304.698 195.835C304.698 199.311 305.368 202.414 306.709 205.145C308.099 207.826 309.986 209.936 312.369 211.475ZM308.743 193.526C308.939 191.515 309.427 189.728 310.209 188.164C311.252 186.029 312.692 184.39 314.529 183.249C316.416 182.057 318.625 181.461 321.157 181.461C323.342 181.461 325.303 181.982 327.041 183.025C328.779 184.068 330.144 185.508 331.137 187.345C332.169 189.162 332.69 191.223 332.701 193.526H308.743Z" fill="#4C4644"/>
<path d="M483.298 178.479H487.49V214.732L461.349 187.308V213.005H457.157V176.753L483.298 204.176V178.479Z" fill="#4C4644"/>
<path fill-rule="evenodd" clip-rule="evenodd" d="M497.374 195.742C497.374 193.21 497.801 190.876 498.656 188.739C499.544 186.568 500.777 184.694 502.355 183.116C503.934 181.505 505.791 180.255 507.929 179.367C510.066 178.447 512.384 177.986 514.883 177.986C517.415 177.986 519.733 178.447 521.838 179.367C523.975 180.255 525.833 181.505 527.411 183.116C528.989 184.694 530.206 186.568 531.061 188.739C531.949 190.876 532.393 193.21 532.393 195.742C532.393 198.241 531.949 200.576 531.061 202.746C530.206 204.916 528.989 206.807 527.411 208.418C525.833 209.997 523.975 211.246 521.838 212.167C519.733 213.055 517.415 213.498 514.883 213.498C512.384 213.498 510.066 213.055 507.929 212.167C505.791 211.246 503.934 209.997 502.355 208.418C500.777 206.807 499.544 204.916 498.656 202.746C497.801 200.576 497.374 198.241 497.374 195.742ZM501.813 195.742C501.813 198.34 502.372 200.658 503.49 202.697C504.641 204.735 506.202 206.347 508.175 207.53C510.148 208.714 512.384 209.306 514.883 209.306C517.415 209.306 519.651 208.714 521.591 207.53C523.564 206.347 525.109 204.735 526.227 202.697C527.378 200.658 527.954 198.34 527.954 195.742C527.954 193.145 527.378 190.827 526.227 188.788C525.109 186.749 523.564 185.138 521.591 183.954C519.651 182.771 517.415 182.179 514.883 182.179C512.384 182.179 510.148 182.771 508.175 183.954C506.202 185.138 504.641 186.749 503.49 188.788C502.372 190.827 501.813 193.145 501.813 195.742Z" fill="#4C4644"/>
<path d="M571.494 203.881L580.471 178.479H585.156L571.592 214.732L561.235 187.9L550.877 214.732L537.313 178.479H541.999L551.173 203.881L561.235 176.753L571.494 203.881Z" fill="#4C4644"/>
<path fill-rule="evenodd" clip-rule="evenodd" d="M589.626 213.005L594.005 202.647H607.912L612.314 213.005H617L600.97 176.753L584.94 213.005H589.626ZM606.259 198.702H595.694L600.97 186.272L606.259 198.702Z" fill="#4C4644"/>
<path fill-rule="evenodd" clip-rule="evenodd" d="M361.978 195.776C361.978 193.245 362.405 190.91 363.26 188.773C364.148 186.602 365.381 184.728 366.959 183.15C368.538 181.539 370.395 180.289 372.533 179.401C374.67 178.481 376.988 178.02 379.487 178.02C382.019 178.02 384.337 178.481 386.442 179.401C388.579 180.289 390.437 181.539 392.015 183.15C393.593 184.728 394.81 186.602 395.665 188.773C396.553 190.91 396.997 193.245 396.997 195.776C396.997 198.275 396.553 200.61 395.665 202.78C394.81 204.95 393.593 206.841 392.015 208.452C390.437 210.031 388.579 211.28 386.442 212.201C384.337 213.089 382.019 213.533 379.487 213.533C376.988 213.533 374.67 213.089 372.533 212.201C370.395 211.28 368.538 210.031 366.959 208.452C365.381 206.841 364.148 204.95 363.26 202.78C362.405 200.61 361.978 198.275 361.978 195.776ZM366.417 195.776C366.417 198.374 366.976 200.692 368.094 202.731C369.245 204.77 370.806 206.381 372.779 207.564C374.752 208.748 376.988 209.34 379.487 209.34C382.019 209.34 384.255 208.748 386.195 207.564C388.168 206.381 389.713 204.77 390.831 202.731C391.982 200.692 392.558 198.374 392.558 195.776C392.558 193.179 391.982 190.861 390.831 188.822C389.713 186.783 388.168 185.172 386.195 183.988C384.255 182.805 382.019 182.213 379.487 182.213C376.988 182.213 374.752 182.805 372.779 183.988C370.806 185.172 369.245 186.783 368.094 188.822C366.976 190.861 366.417 193.179 366.417 195.776Z" fill="#4C4644"/>
<path fill-rule="evenodd" clip-rule="evenodd" d="M406.863 178.514H417.221C420.575 178.514 423.551 179.237 426.148 180.684C428.746 182.131 430.784 184.153 432.264 186.75C433.744 189.315 434.484 192.324 434.484 195.776C434.484 199.229 433.744 202.254 432.264 204.852C430.784 207.417 428.746 209.422 426.148 210.869C423.551 212.316 420.575 213.039 417.221 213.039H406.863V178.514ZM411.056 208.847V182.706H417.221C419.161 182.706 420.936 183.018 422.548 183.643C424.159 184.235 425.54 185.106 426.691 186.257C427.842 187.375 428.729 188.74 429.354 190.351C429.979 191.962 430.291 193.771 430.291 195.776C430.291 197.782 429.979 199.591 429.354 201.202C428.729 202.813 427.842 204.194 426.691 205.345C425.54 206.463 424.159 207.334 422.548 207.959C420.936 208.551 419.161 208.847 417.221 208.847H411.056Z" fill="#4C4644"/>
<path fill-rule="evenodd" clip-rule="evenodd" d="M487.366 30.1668L457.2 0L362.457 94.7424V164.335L437.44 164.335L437.44 160.229H366.403V96.3768L457.2 5.5802V164.288L457.156 164.333L457.2 164.333L487.366 164.335L487.366 30.1668ZM457.2 164.333V164.288L483.297 136.897V164.333L457.2 164.333Z" fill="#4C4644"/>
<path d="M488.846 31.6465L488.846 164.335L502.656 164.335L502.656 45.4568L488.846 31.6465Z" fill="#4C4644"/>
<path d="M504.629 164.335V47.4297L515.357 58.1573L515.357 164.335H504.629Z" fill="#4C4644"/>
<path d="M517.823 60.6234L517.823 164.335H526.455L526.455 69.2549L517.823 60.6234Z" fill="#4C4644"/>
<path d="M529.414 164.335L529.414 72.2142L535.456 78.2562V164.335H529.414Z" fill="#4C4644"/>
<path d="M538.908 81.7088V164.335H544.087V86.8877L538.908 81.7088Z" fill="#4C4644"/>
<path d="M548.033 164.335V90.8335L551.942 94.7424V164.335H548.033Z" fill="#4C4644"/>
</svg>
